<?xml version="1.0" encoding="UTF-8" standalone="no"?>
<svg
   xmlns:dc="http://purl.org/dc/elements/1.1/"
   xmlns:cc="http://creativecommons.org/ns#"
   xmlns:rdf="http://www.w3.org/1999/02/22-rdf-syntax-ns#"
   xmlns:svg="http://www.w3.org/2000/svg"
   xmlns="http://www.w3.org/2000/svg"
   xmlns:sodipodi="http://sodipodi.sourceforge.net/DTD/sodipodi-0.dtd"
   xmlns:inkscape="http://www.inkscape.org/namespaces/inkscape"
   inkscape:export-ydpi="96"
   inkscape:export-xdpi="96"
   inkscape:export-filename="C:\Users\Tobias\Workspace\battle-of-bademaentel\bbb-frontend\src\assets\fedora-hut.png"
   inkscape:version="1.0 (4035a4fb49, 2020-05-01)"
   sodipodi:docname="fedora-hut.svg"
   xml:space="preserve"
   style="enable-background:new 0 0 611.998 611.998;"
   viewBox="0 0 611.998 611.998"
   y="0px"
   x="0px"
   id="Capa_1"
   version="1.1"><metadata
   id="metadata47"><rdf:RDF><cc:Work
       rdf:about=""><dc:format>image/svg+xml</dc:format><dc:type
         rdf:resource="http://purl.org/dc/dcmitype/StillImage" /></cc:Work></rdf:RDF></metadata><defs
   id="defs45"><rect
     id="rect51"
     height="149.03951"
     width="428.39859"
     y="71.279765"
     x="59.759803" /></defs><sodipodi:namedview
   inkscape:current-layer="g8"
   inkscape:window-maximized="1"
   inkscape:window-y="-8"
   inkscape:window-x="-8"
   inkscape:cy="305.99899"
   inkscape:cx="194.46366"
   inkscape:zoom="1.3888935"
   showgrid="false"
   id="namedview43"
   inkscape:window-height="1377"
   inkscape:window-width="2560"
   inkscape:pageshadow="2"
   inkscape:pageopacity="0"
   guidetolerance="10"
   gridtolerance="10"
   objecttolerance="10"
   borderopacity="1"
   bordercolor="#666666"
   pagecolor="#ffffff" />
<g
   id="g10">
	<g
   id="g8">
		<path
   style="fill:#aa0000"
   id="path2"
   d="M424.546,104.617l23.071,32.499l0,0l38.456,54.169l-1.851,8.856c-0.347,1.626-3.67,16.542-15.224,38.881    c-17.544,33.913-53.591,84.072-125.671,130.44c-13.701,9.049-137.734,88.911-208.921,65.923l-8.252-2.667l-20.366-40.571h-0.006    L74.884,330.6l0,0l-2.905-5.79C38.677,359.134-32.388,446.227,16.853,522.773c0,0,75.345,127.393,293.925-13.232    c0,0,349.476-230.225,295.57-390.496C606.353,119.051,579.702,41.669,424.546,104.617z" />
		<path
   style="fill:#aa0000"
   id="path4"
   d="M280.2,262.402c90.833-58.424,121.545-119.347,130.285-141.808l-5.43-7.641l-46.496-65.48    C311.105,4.479,171.34,99.791,171.34,99.791C25.618,193.541,56.26,247.331,56.26,247.331l31.349,62.44l10.212,20.334    C147.189,340.555,245.869,285.03,280.2,262.402z M127.447,225.327c-2.371-5.199-0.084-11.349,5.122-13.721    c37.698-17.204,83.372-46.869,83.834-47.164c40.526-26.072,66.11-48.643,80.441-62.993c4.042-4.049,10.597-4.049,14.646-0.013    c3.278,3.271,3.901,8.187,1.883,12.088c-0.476,0.919-1.105,1.787-1.877,2.558c-21.889,21.921-50.101,44.041-83.841,65.744    c-1.87,1.215-47.357,30.764-86.488,48.623C135.969,232.827,129.825,230.532,127.447,225.327z" />
		<path
   style="fill:#aa0000"
   id="path6"
   d="M130.66,395.528l10.109,20.141c63.777,20.597,191.35-63.636,191.35-63.636c114.54-73.687,131.821-156.146,131.821-156.146    l-12.538-17.667c-1.208,2.622-2.571,5.43-4.152,8.464c-16.388,31.676-53.353,84.997-131.879,135.517    C310.437,325.459,201.564,396.582,130.66,395.528z" />
	<text
   inkscape:export-ydpi="96"
   inkscape:export-xdpi="96"
   transform="matrix(3.5211393,-2.4532207,3.3896774,3.2948487,-471.50724,513.28174)"
   style="font-style:normal;font-weight:normal;font-size:48px;line-height:1.25;font-family:sans-serif;white-space:pre;shape-inside:url(#rect51);fill:#000000;fill-opacity:1;stroke:none;"
   id="text49"
   xml:space="preserve"><tspan
     x="59.759766"
     y="117.12503"><tspan
       style="font-style:normal;font-variant:normal;font-weight:normal;font-stretch:normal;font-size:48px;font-family:'BadaBoom BB';-inkscape-font-specification:'BadaBoom BB';fill:#ffffff">NICHTUNTER18</tspan></tspan></text></g>
</g>
<g
   id="g12">
</g>
<g
   id="g14">
</g>
<g
   id="g16">
</g>
<g
   id="g18">
</g>
<g
   id="g20">
</g>
<g
   id="g22">
</g>
<g
   id="g24">
</g>
<g
   id="g26">
</g>
<g
   id="g28">
</g>
<g
   id="g30">
</g>
<g
   id="g32">
</g>
<g
   id="g34">
</g>
<g
   id="g36">
</g>
<g
   id="g38">
</g>
<g
   id="g40">
</g>
</svg>
